<svg xmlns="http://www.w3.org/2000/svg" viewBox="0 0 2048 2048" fill="none">
  <defs>
    <linearGradient id="white" x1="430" y1="322" x2="1500" y2="1280" gradientUnits="userSpaceOnUse"><stop stop-color="#FBF9FB"/><stop offset=".48" stop-color="#D7E0EB"/><stop offset="1" stop-color="#686F7A"/></linearGradient>
    <linearGradient id="graph" x1="360" y1="512" x2="1644" y2="1250" gradientUnits="userSpaceOnUse"><stop stop-color="#2A2F36"/><stop offset=".55" stop-color="#0B0F12"/><stop offset="1" stop-color="#042826"/></linearGradient>
    <filter id="edge" x="-20%" y="-20%" width="140%" height="140%"><feDropShadow dx="0" dy="18" stdDeviation="22" flood-color="#000" flood-opacity=".55"/></filter>
  </defs>
  <g filter="url(#edge)">
    <path d="M413 837C426 535 663 302 1024 302C1385 302 1622 535 1635 837L1520 801C1478 585 1295 446 1024 446C753 446 570 585 528 801L413 837Z" fill="url(#white)" stroke="#97FCE4" stroke-opacity=".45" stroke-width="18"/>
    <path d="M508 638L353 760L333 1051L487 1178L563 1057L526 834L508 638Z" fill="url(#graph)" stroke="#97FCE4" stroke-opacity=".48" stroke-width="16"/>
    <path d="M1540 638L1695 760L1715 1051L1561 1178L1485 1057L1522 834L1540 638Z" fill="url(#graph)" stroke="#97FCE4" stroke-opacity=".48" stroke-width="16"/>
    <path d="M580 480L756 348L807 455L664 545L580 480Z" fill="#2A2F36"/>
    <path d="M1468 480L1292 348L1241 455L1384 545L1468 480Z" fill="#2A2F36"/>
    <path d="M478 1074L611 1122L663 1279L541 1331L427 1198L478 1074Z" fill="#0B0F12" stroke="#00F0E6" stroke-opacity=".55" stroke-width="14"/>
    <path d="M1570 1074L1437 1122L1385 1279L1507 1331L1621 1198L1570 1074Z" fill="#0B0F12" stroke="#00F0E6" stroke-opacity=".55" stroke-width="14"/>
    <path d="M729 365H1319" stroke="#FBF9FB" stroke-opacity=".75" stroke-width="22" stroke-linecap="round"/>
  </g>
</svg>
