<svg xmlns="http://www.w3.org/2000/svg" viewBox="0 0 1200 520" fill="none">
  <defs>
    <linearGradient id="glass" x1="170" y1="72" x2="1018" y2="454" gradientUnits="userSpaceOnUse">
      <stop stop-color="#97FCE4" stop-opacity=".42"/>
      <stop offset=".16" stop-color="#0B4A40" stop-opacity=".84"/>
      <stop offset=".62" stop-color="#031613" stop-opacity=".94"/>
      <stop offset="1" stop-color="#00F0E6" stop-opacity=".32"/>
    </linearGradient>
    <linearGradient id="rim" x1="116" y1="95" x2="1070" y2="440" gradientUnits="userSpaceOnUse">
      <stop stop-color="#FBF9FB" stop-opacity=".88"/>
      <stop offset=".22" stop-color="#97FCE4"/>
      <stop offset=".7" stop-color="#0B4A40"/>
      <stop offset="1" stop-color="#00F0E6"/>
    </linearGradient>
    <radialGradient id="bloom" cx="0" cy="0" r="1" gradientTransform="translate(602 275) rotate(90) scale(225 470)" gradientUnits="userSpaceOnUse">
      <stop stop-color="#00F0E6" stop-opacity=".18"/>
      <stop offset="1" stop-color="#00F0E6" stop-opacity="0"/>
    </radialGradient>
    <filter id="glow" x="-20%" y="-35%" width="140%" height="170%">
      <feGaussianBlur stdDeviation="14" result="blur"/>
      <feMerge><feMergeNode in="blur"/><feMergeNode in="SourceGraphic"/></feMerge>
    </filter>
    <clipPath id="lens">
      <path d="M93 205C113 105 219 53 348 64L600 87L852 64C981 53 1087 105 1107 205L1122 280C1138 360 1082 437 1000 448C856 468 728 423 600 341C472 423 344 468 200 448C118 437 62 360 78 280L93 205Z"/>
    </clipPath>
  </defs>
  <path d="M93 205C113 105 219 53 348 64L600 87L852 64C981 53 1087 105 1107 205L1122 280C1138 360 1082 437 1000 448C856 468 728 423 600 341C472 423 344 468 200 448C118 437 62 360 78 280L93 205Z" fill="#020C0A" stroke="url(#rim)" stroke-width="18" filter="url(#glow)"/>
  <g clip-path="url(#lens)">
    <rect x="62" y="50" width="1076" height="420" fill="url(#glass)"/>
    <rect x="62" y="50" width="1076" height="420" fill="url(#bloom)"/>
    <path d="M365 294V176L430 106L486 180C525 159 560 150 600 150C640 150 675 159 714 180L770 106L835 176V294C835 382 730 423 600 423C470 423 365 382 365 294Z" fill="#020C0A" fill-opacity=".66"/>
    <ellipse cx="600" cy="307" rx="176" ry="108" fill="#031613" fill-opacity=".46"/>
    <path d="M256 104C421 138 686 116 974 84" stroke="#FBF9FB" stroke-opacity=".28" stroke-width="34" stroke-linecap="round"/>
    <path d="M178 373C380 414 681 399 1051 258" stroke="#00F0E6" stroke-opacity=".12" stroke-width="20" stroke-linecap="round"/>
  </g>
  <g transform="translate(501 194) scale(.99)" fill="#97FCE4" filter="url(#glow)">
    <path d="M175.11589 99.27891c0 49.46366-30.3687 65.33789-46.47302 51.30413-13.11357-11.5031-17.02471-35.88989-36.81018-38.42055-25.07698-2.99085-27.37764 30.36839-43.94216 30.36839-19.3254 0-23.00642-27.83773-23.00642-42.33179 0-14.72405 4.14115-34.73961 20.47565-34.73961 19.09528 0 20.24566 28.75802 44.17226 27.14754 23.69661-1.61047 24.1567-31.51877 39.80103-44.17224 13.57335-11.27313 45.78283.69019 45.78283 50.84413Z"/>
  </g>
</svg>
